<svg xmlns="http://www.w3.org/2000/svg" style="display: none;"><symbol id="doctor" viewBox="0 0 511.999 511.999"><title>doctor</title><circle style="fill:#FF5B62;" cx="256" cy="255.998" r="255.998"/><path style="fill:#B3B3B3;" d="M220.318,249.429c23.785,0,47.57,0,71.353,0l0.39,4.877l-34.87,52.863l-37.458-53.385l0.584-4.352 L220.318,249.429L220.318,249.429z"/><path style="fill:#F0BA7D;" d="M220.778,236.169l-0.618,29.819l-50.59,27.664v101.405h85.164h85.153V293.651l-47.016-29.223 l-2.582-29.814l-69.51,1.554H220.778z"/><path style="fill:#FED298;" d="M197.401,149.212c0,0-2.901-6.374-10.689-3.215c-7.79,3.155,0.35,34.651,3.327,39.045 c2.974,4.392,7.763,1.603,9.507,1.429c2.48,18.776,2.701,31.717,10.217,39.634c7.119,7.496,23.417,22.773,32.003,28.101 c5.815,1.228,10.153,1.949,14.234,2.165c4.079-0.216,8.421-0.939,14.234-2.165c8.585-5.325,24.886-20.605,32.003-28.101 c7.514-7.917,7.737-20.855,10.217-39.634c1.744,0.175,6.533,2.963,9.507-1.429c2.976-4.394,11.117-35.891,3.327-39.045 c-7.79-3.16-10.689,3.215-10.689,3.215s7.699-24.733-5.986-49.078c-9.378-16.686-30.767-25.34-52.612-25.975 c-21.845,0.635-43.234,9.289-52.612,25.975c-13.685,24.346-5.986,49.078-5.986,49.078L197.401,149.212L197.401,149.212z"/><path style="fill:#15BDB2;" d="M195.351,274.76l12.115-4.772l9.763-8.773l34.472,26.145h8.585l34.483-26.176l21.874,13.579 l38.011,64.61l-30.103,163.323c-21.821,6.052-44.809,9.3-68.558,9.3c-19.369,0-38.23-2.165-56.368-6.24L145.67,344.535 l49.678-69.774L195.351,274.76z"/><g> <path style="fill:#21D0C3;" d="M305.588,266.591l-13.917-17.162l-31.381,37.932l26.936,29.93L305.588,266.591z"/> <path style="fill:#21D0C3;" d="M206.384,266.289l13.935-16.86l31.383,37.932l-28.006,29.622L206.384,266.289z"/> </g><path style="fill:#FFFFFF;" d="M206.386,266.289l-92.244,29.997c-3.751,1.217-6.107,4.407-6.871,8.279L80.146,442.023 c18.267,17.275,39.08,31.878,61.813,43.21l13.485-44.009c0.157-0.505,0.637-0.82,1.162-0.757c0.523,0.062,0.921,0.481,0.95,1.01 l1.947,51.688c29.781,12.135,62.355,18.831,96.499,18.831v-17.162L206.388,266.29L206.386,266.289z"/><g> <path style="fill:#EEF3F7;" d="M206.386,266.289l-10.565,3.246l-27.99,47.759l35.335,1.107l-21.693,12.351l74.53,164.084 l-49.614-228.545L206.386,266.289z"/> <path style="fill:#EEF3F7;" d="M305.588,266.591l92.272,29.695c3.757,1.209,6.105,4.407,6.869,8.279l27.126,137.46 c-18.269,17.275-39.083,31.879-61.817,43.212l-13.487-44.011c-0.155-0.505-0.64-0.82-1.162-0.757 c-0.523,0.062-0.917,0.483-0.948,1.01l-1.942,51.688c-29.781,12.135-62.355,18.831-96.497,18.831H256v-17.162l49.587-228.242 L305.588,266.591z"/> </g><path style="fill:#FFFFFF;" d="M305.588,266.591l5.865,1.784l32.693,49.22l-35.335,1.109l21.695,12.352l-74.506,163.78 l49.587-228.242v-0.002H305.588z"/><path style="fill:#D9DADA;" d="M266.455,493.762c-3.111,0-5.633,2.516-5.633,5.616c0,3.105,2.524,5.62,5.633,5.62 c3.109,0,5.633-2.516,5.633-5.62C272.088,496.276,269.564,493.762,266.455,493.762z"/><path style="fill:#666666;" d="M307.877,156.576l5.428-0.19l1.747-6.194l5.113-5.102c3.377-25.428,4.372-65.003-20.867-63.861 c0,0-2.276-28.856-47.801-23.2c-45.528,5.658-66.098,35.048-63.647,59.568c2.449,24.52,1.462,27.49,1.462,27.49l5.113,5.104 l0.771,7.046l4.465-0.282c0,0,1.4-9.431,2.801-13.579c1.402-4.147,0.963-12.543,0.963-12.543s53.774,3.426,68.306-15.059 c8.975-11.415,29.587-31.194,30.625-3.802c0.308,8.123-2.712,20.298,3.067,29.159c5.781,8.862,2.452,15.443,2.452,15.443h0.002 V156.576z"/><path style="fill:#0F7986;" d="M256,494.834l14.536-66.904l-9.878-131.88l5.382-2.297l-5.753-6.391h-8.585l-5.9,6.242l5.538,2.447 l-9.631,132.947l14.292,65.837L256,494.834L256,494.834z"/><path style="fill:#FFFFFF;" d="M265.954,493.762c-2.833,0-5.133,2.29-5.133,5.115c0,2.828,2.299,5.12,5.133,5.12 c2.831,0,5.133-2.291,5.133-5.12C271.087,496.053,268.785,493.762,265.954,493.762z"/><path style="fill:#FEFEFE;" d="M346.395,409.066c-9.99-1.725-16.69-11.223-14.967-21.21c1.725-9.988,11.223-16.693,21.21-14.969 c9.99,1.725,16.69,11.225,14.967,21.215c-1.725,9.987-11.223,16.69-21.212,14.965L346.395,409.066L346.395,409.066z"/><path style="fill:#0F7986;" d="M346.576,408.012c-9.408-1.625-15.718-10.565-14.093-19.976c1.625-9.409,10.568-15.72,19.978-14.097 c9.408,1.625,15.718,10.57,14.093,19.978c-1.625,9.411-10.568,15.718-19.978,14.093V408.012z"/><path style="fill:#EBECEC;" d="M347.89,400.405c-5.204-0.897-8.696-5.85-7.799-11.055c0.897-5.206,5.85-8.696,11.053-7.799 c5.206,0.899,8.698,5.845,7.799,11.053c-0.897,5.204-5.848,8.696-11.053,7.799V400.405z"/><path style="fill:#FEFEFE;" d="M349.015,382.577l4.203,0.726l2.26-13.09l-4.203-0.726L349.015,382.577z"/><path style="fill:#21D0C3;" d="M208.24,412.697l7.876-1.563c3.347-0.666,6.118-2.635,7.887-5.279 c1.764-2.644,2.531-5.957,1.865-9.305l-9.263-46.667c-3.497-17.61-17.273-26.59-33.015-28.581 c-6.032-0.763-12.356-0.485-18.483,0.728c-6.132,1.213-12.076,3.369-17.357,6.376c-13.754,7.834-23.023,21.378-19.522,39.016 l9.263,46.669c0.666,3.347,2.639,6.116,5.281,7.885l0.007-0.002c2.644,1.769,5.953,2.531,9.3,1.867l7.872-1.563l-0.644-3.246 l-7.874,1.563c-2.454,0.487-4.885-0.075-6.822-1.367l0.002-0.002c-1.938-1.298-3.386-3.329-3.874-5.781l-9.263-46.669 c-3.177-16.005,5.316-28.341,17.901-35.504c4.974-2.835,10.583-4.868,16.373-6.017c5.79-1.147,11.752-1.406,17.434-0.688 c14.409,1.821,27.009,9.981,30.178,25.955l9.265,46.669c0.485,2.452-0.077,4.881-1.371,6.822c-1.298,1.936-3.329,3.384-5.784,3.869 l-7.876,1.563l0.644,3.246v0.005H208.24z"/><path style="fill:#4D4D4D;" d="M219.104,356.799l-1.415-7.128c-3.603-18.156-17.777-27.41-33.961-29.459 c-6.149-0.776-12.589-0.498-18.831,0.741c-6.242,1.235-12.301,3.435-17.682,6.497c-14.146,8.056-23.674,22.002-20.064,40.19 l1.417,7.128l5.406-1.076l-1.415-7.128c-3.067-15.458,5.168-27.393,17.361-34.336c4.874-2.774,10.37-4.765,16.047-5.891 c5.675-1.127,11.52-1.38,17.087-0.677c13.961,1.764,26.167,9.65,29.232,25.082l1.415,7.128l5.408-1.074L219.104,356.799z"/><g> <path style="fill:#076673;" d="M153.704,424.235l4.214-0.837c1.058,1.187,2.695,1.796,4.363,1.466 c2.507-0.498,4.136-2.932,3.638-5.441c-0.496-2.505-2.932-4.134-5.439-3.636c-1.672,0.33-2.95,1.521-3.472,3.021l-4.211,0.835 l0.91,4.59L153.704,424.235z"/> <path style="fill:#076673;" d="M211.588,412.746l-4.209,0.837c-0.523,1.499-1.801,2.688-3.47,3.021 c-2.507,0.496-4.941-1.131-5.439-3.64c-0.496-2.505,1.131-4.941,3.636-5.437c1.669-0.33,3.308,0.282,4.361,1.466l4.211-0.837 L211.588,412.746z"/> </g><path style="fill:#666666;" d="M167.458,320.532l-1.607-8.096l-3.195,0.635l-3.191,0.633l1.625,8.176 c1.217-0.355,2.449-0.657,3.693-0.904C165.67,320.799,166.56,320.654,167.458,320.532z"/><g> <path style="fill:#0F7986;" d="M160.566,419.73c0.758-0.15,1.251-0.89,1.1-1.645c-0.15-0.759-0.884-1.253-1.645-1.103 c-0.759,0.15-1.251,0.888-1.1,1.645c0.151,0.757,0.886,1.253,1.645,1.1V419.73z"/> <path style="fill:#0F7986;" d="M202.219,411.446c0.757-0.15,1.248-0.888,1.098-1.643c-0.15-0.761-0.884-1.253-1.645-1.103 c-0.759,0.15-1.251,0.888-1.1,1.647C200.72,411.105,201.458,411.597,202.219,411.446z"/> </g><path style="fill:#FEFEFE;" d="M347.379,400.317c-4.923-0.849-8.224-5.53-7.376-10.456c0.849-4.921,5.527-8.224,10.451-7.373 c4.923,0.849,8.226,5.53,7.376,10.451c-0.851,4.923-5.532,8.226-10.453,7.378H347.379z"/><g> <path style="fill:#4D4D4D;" d="M206.431,268.717c-0.141,0.002-49.86,0.414-41.462,43.912l-4.624,0.884 c-9.467-49.038,45.874-49.49,46.031-49.492L206.431,268.717z"/> <path style="fill:#4D4D4D;" d="M305.643,264.243c8.112,0.219,23.792,2.43,35.862,17.111c11.811,14.367,20.091,40.752,13.9,89.128 l-4.661-0.589c5.993-46.822-1.751-72.032-12.865-85.554c-10.859-13.211-25.018-15.202-32.343-15.399l0.11-4.697L305.643,264.243z"/> </g></symbol><symbol id="man" viewBox="0 0 512 512"><title>man</title><polygon style="fill:#E6AF78;" points="379.577,231.447 379.577,203.991 308.976,203.991 308.976,231.447 344.276,262.825 "/><path style="fill:#B4E1FA;" d="M434.16,244.29l-48.535-11.42c-0.733-0.172-1.407-0.466-2.038-0.82l-39.31,22.93l-37.778-24.041 c-0.978,0.92-2.191,1.606-3.571,1.93l-48.535,11.42c-7.087,1.667-12.096,7.991-12.096,15.272v38.564l101.98,19.668l101.98-19.668 v-38.564C446.256,252.281,441.247,245.958,434.16,244.29z"/><path style="fill:#D29B6E;" d="M308.976,203.991v28.969c44.469,16.022,70.601-24.077,70.601-24.077v-4.892L308.976,203.991 L308.976,203.991z"/><path style="fill:#F0C087;" d="M293.286,113.778l3.418,75.196c0.319,7.025,3.764,13.539,9.389,17.759l16.217,12.163 c4.074,3.055,9.028,4.707,14.12,4.707h15.689c5.092,0,10.047-1.652,14.12-4.707l16.217-12.163c5.625-4.22,9.07-10.733,9.389-17.759 l3.418-75.196H293.286z"/><path style="fill:#E6AF78;" d="M332.509,129.468c15.689,0,39.223-3.923,44.804-15.689h-84.028l3.417,75.196 c0.319,7.025,3.764,13.539,9.389,17.758l16.217,12.163c4.074,3.055,9.028,4.707,14.12,4.707h7.847 c-7.844,0-23.533-15.689-23.533-35.3c0-9.591,0-35.3,0-47.068C320.742,137.312,324.665,129.468,332.509,129.468z"/><g> <path style="fill:#A0D2F0;" d="M417.461,272.67l25.416-22.831c2.13,2.697,3.379,6.09,3.379,9.724v30.719 c0,4.332-3.512,7.844-7.844,7.844h-27.456v-10.867C410.955,281.694,413.32,276.39,417.461,272.67z"/> <path style="fill:#A0D2F0;" d="M271.091,272.67l-25.416-22.831c-2.13,2.697-3.379,6.09-3.379,9.724v30.719 c0,4.332,3.512,7.844,7.844,7.844h27.456v-10.867C277.597,281.694,275.232,276.39,271.091,272.67z"/> </g><polygon style="fill:#5B5D6E;" points="354.081,315.78 334.47,315.78 336.922,262.825 351.631,262.825 "/><path style="fill:#515262;" d="M354.081,254.98H334.47v4.625c0,3.945,3.198,7.143,7.143,7.143h5.326 c3.945,0,7.143-3.198,7.143-7.143L354.081,254.98L354.081,254.98z"/><g> <path style="fill:#A0D2F0;" d="M308.424,222.715l35.852,32.266c0,0-10.04,5.068-22.431,15.285 c-2.556,2.108-6.422,1.254-7.793-1.762l-16.844-37.056l5.329-7.993C303.863,221.464,306.647,221.115,308.424,222.715z"/> <path style="fill:#A0D2F0;" d="M380.127,222.715l-35.851,32.266c0,0,10.04,5.068,22.431,15.285 c2.556,2.108,6.422,1.254,7.793-1.762l16.844-37.056l-5.329-7.993C384.689,221.464,381.905,221.115,380.127,222.715z"/> </g><path style="fill:#785550;" d="M368.055,87.793l3.677,25.985c16.785,3.357,19.204,29.698,19.553,37.223 c0.063,1.365,0.499,2.684,1.24,3.832l6.404,9.934c0,0-2.193-16.425,7.844-27.456C406.773,137.312,410.219,72.104,368.055,87.793z"/><path style="fill:#F0C087;" d="M402.864,163.09l-4.429,17.718c-0.525,2.099-2.411,3.572-4.575,3.572l0,0 c-2.378,0-4.384-1.771-4.679-4.13l-2.265-18.122c-0.606-4.846,3.172-9.127,8.056-9.127h0.015 C400.27,153.001,404.145,157.965,402.864,163.09z"/><path style="fill:#694B4B;" d="M297.045,80.766l5.802,3.964c-26.23,19.367-21.327,52.584-21.327,52.584 c7.844,7.844,7.844,27.456,7.844,27.456l7.844-7.844c0,0-3.028-22.66,11.767-31.379c13.728-8.089,25.74-3.923,37.997-3.923 c32.85,0,42.043-12.38,40.449-27.456c-0.824-7.801-12.751-24.051-43.145-23.533C332.01,70.841,308.976,74.555,297.045,80.766z"/><path style="fill:#5A4146;" d="M294.757,118.19c0,0-4.168-16.425,8.089-33.462c-26.23,19.367-21.327,52.584-21.327,52.584 c7.844,7.844,7.844,27.456,7.844,27.456l7.844-7.844c0,0-3.028-22.66,11.767-31.379c13.728-8.089,25.74-3.923,37.997-3.923 c5.342,0,9.998-0.358,14.144-0.971C335.818,121.5,320.906,102.338,294.757,118.19z"/><path style="fill:#E6AF78;" d="M285.689,163.09l4.429,17.718c0.525,2.099,2.411,3.572,4.575,3.572l0,0 c2.378,0,4.384-1.771,4.679-4.13l2.265-18.122c0.606-4.846-3.172-9.127-8.056-9.127h-0.015 C288.283,153.001,284.407,157.965,285.689,163.09z"/><path style="fill:#A0D2F0;" d="M393.474,290.281h-23.873c-3.156,0-5.714,2.558-5.714,5.714v12.971h35.3v-12.97 C399.188,292.84,396.63,290.281,393.474,290.281z"/><rect x="189.263" y="266.19" transform="matrix(0.7071 0.7071 -0.7071 0.7071 277.0252 -55.2723)" style="fill:#D7DEED;" width="31.939" height="81.147"/><path style="fill:#C7CFE2;" d="M202.44,286.975c6.869,8.161,14.423,15.716,22.584,22.585l20.2-20.2l-22.584-22.585L202.44,286.975z"/><path style="fill:#D7DEED;" d="M344.276,0c-92.631,0-167.724,75.093-167.724,167.724s75.093,167.724,167.724,167.724 S512,260.355,512,167.724S436.907,0,344.276,0z M344.276,308.966c-78.005,0-141.241-63.236-141.241-141.241 c0-78.006,63.236-141.241,141.241-141.241c78.006,0,141.241,63.235,141.241,141.241 C485.518,245.729,422.282,308.966,344.276,308.966z"/><path style="fill:#707487;" d="M23.9,506.83L5.172,488.106c-6.895-6.894-6.897-18.074-0.001-24.97L154.17,314.137 c6.894-6.894,18.072-6.894,24.967-0.001l18.728,18.724c6.895,6.894,6.897,18.074,0.001,24.97L48.867,506.829 C41.973,513.724,30.795,513.724,23.9,506.83z"/><path style="fill:#5B5D6E;" d="M22.826,480.791l148.999-148.999c6.894-6.894,18.071-6.895,24.967-0.001l1.092,1.091 c0,0-0.011-0.015-0.019-0.022l-18.728-18.724c-6.895-6.893-18.072-6.893-24.967,0.001l-148.999,149 c-6.895,6.895-6.895,18.074,0.001,24.969l17.641,17.638C15.933,498.848,15.935,487.681,22.826,480.791z"/><path style="fill:#C7CFE2;" d="M186.987,368.708l10.878-10.878c6.895-6.895,6.894-18.074-0.001-24.969l-18.728-18.724 c-6.895-6.893-18.072-6.893-24.967,0.001l-10.876,10.877L186.987,368.708z"/><g style="opacity:0.97;"> <path style="fill:#AFB9D2;" d="M160.947,342.669l10.877-10.877c6.894-6.894,18.071-6.895,24.967-0.001l1.09,1.09 c-0.007-0.007-0.01-0.014-0.017-0.021l-18.728-18.724c-6.895-6.893-18.072-6.893-24.967,0.001l-10.876,10.877L160.947,342.669z"/> </g></symbol><symbol id="uterus" viewBox="0 0 58 58"><title>uterus</title><path style="fill:#ED9893;" d="M57.384,6.165c-1.663-3.2-5.595-4.05-8.372-2.199l-6.594,4.396c-0.823,0.55-1.791,0.773-2.737,0.67 L40,8.012c0-0.506-0.235-0.977-0.619-1.306c-8.88-7.61-12.005-7.606-20.762,0C18.237,7.038,18,7.506,18,8.012l0.319,1.021 c-0.946,0.103-1.914-0.12-2.738-0.67l-6.374-4.25c-2.28-1.52-5.821-1.266-7.679,0.748C0.541,5.931,0,7.313,0,8.777v2.912 c0,1.494,0.579,2.931,1.615,4.008c0.446,0.464,0.923,0.89,1.419,1.289c-0.293,1.906,1.925,4.1,5.141,5.006 c2.758,0.776,5.386,0.362,6.549-0.893c0.512,0.067,1.027,0.111,1.541,0.111c1.82,0,3.633-0.416,5.28-1.227l0.176-0.073l0.989,3.162 C22.26,24.26,22,25.59,22,27c0,2.331,0.373,4.572,1.409,6.207c0.293-0.217,0.689-0.275,1.038-0.101l2,1 c0.494,0.247,0.694,0.848,0.447,1.342C26.719,35.798,26.367,36,26,36c-0.15,0-0.303-0.034-0.446-0.105l-1.662-0.831 C23.92,35.509,24,35.97,24,36.5c0,1.222,0.261,2.363,0.713,3.339c0.198,0.426,0.139,0.915-0.124,1.305 C24.217,41.698,24,42.327,24,43c0,0.498,0.122,0.97,0.335,1.406c0.184,0.377,0.184,0.81,0,1.187C24.122,46.031,24,46.503,24,47 s0.122,0.97,0.335,1.406c0.184,0.377,0.184,0.81,0,1.187C24.122,50.031,24,50.503,24,51v6h10v-6c0-0.498-0.122-0.97-0.335-1.406 c-0.184-0.377-0.184-0.81,0-1.187C33.879,47.97,34,47.498,34,47s-0.122-0.97-0.335-1.406c-0.184-0.377-0.184-0.81,0-1.187 C33.879,43.97,34,43.498,34,43c0-0.674-0.217-1.302-0.589-1.856c-0.262-0.39-0.321-0.878-0.124-1.305 C33.739,38.864,34,37.722,34,36.5c0-0.531,0.08-0.991,0.109-1.437l-1.662,0.831C32.304,35.966,32.152,36,32.001,36 c-0.367,0-0.72-0.202-0.896-0.553c-0.247-0.494-0.047-1.095,0.447-1.342l2-1c0.348-0.174,0.745-0.116,1.038,0.101 C35.627,31.572,36,29.331,36,27c0-1.411-0.26-2.74-0.709-3.929l0.989-3.162l0.176,0.073c1.647,0.811,3.46,1.227,5.28,1.227 c0.42,0,0.842-0.024,1.261-0.069c0.044,0.135,0.098,0.267,0.168,0.392c0.997,1.778,4.277,1.834,7.325,0.125 c2-1.121,3.397-2.723,3.845-4.195c0.775-0.558,1.506-1.183,2.169-1.891C57.485,14.526,58,13.124,58,11.689V8.884 C58,7.944,57.817,7,57.384,6.165z M19.947,16.315c-0.043,0.018-0.085,0.037-0.126,0.058c-1.625,0.813-3.497,1.044-5.268,0.649 l-0.633-0.141c-0.917-0.844-2.217-1.566-3.745-1.997c-1.294-0.364-2.558-0.464-3.658-0.341c-0.727-0.463-1.415-0.99-2.021-1.622 C4.177,12.589,4,12.151,4,11.689V8.777c0-0.476,0.186-0.923,0.521-1.26C5.12,6.92,6.066,6.825,6.77,7.295l6.594,4.396 c1.845,1.23,4.061,1.628,6.16,1.192l0.999,3.193L19.947,16.315z M54,11.689c0,0.462-0.177,0.9-0.496,1.233 c-0.403,0.42-0.842,0.797-1.301,1.144c-1.468-0.283-3.438,0.095-5.324,1.152c-0.78,0.437-1.467,0.948-2.044,1.495l-1.389,0.309 c-1.771,0.395-3.643,0.163-5.268-0.649c-0.041-0.021-0.083-0.04-0.126-0.058l-0.574-0.239l0.999-3.193 c2.099,0.436,4.315,0.038,6.16-1.192l6.594-4.396c0.703-0.47,1.649-0.375,2.248,0.223C53.815,7.854,54,8.301,54,8.777V11.689z"/><path style="fill:#F76363;" d="M37.889,8.062C33.619,4.423,31.103,3,28.956,3c-2.171,0-4.58,1.375-8.845,5.061l2.864,9.16 l-0.02,0.008c0,0.001,0,0.002,0.001,0.004l0.021-0.009l1.847,5.909l-0.243,0.646C24.196,24.796,24,25.88,24,27 c0,2.631,0.513,4.587,1.482,5.657l0.797,0.88l-0.391,1.12c-0.035,0.102-0.002,0.4,0.031,0.688C25.961,35.707,26,36.087,26,36.5 c0,0.89,0.183,1.753,0.528,2.5c0.488,1.057,0.384,2.275-0.279,3.259C26.082,42.508,26,42.751,26,43c0,0.174,0.043,0.347,0.133,0.53 c0.455,0.935,0.455,2.005,0,2.94C26.043,46.654,26,46.827,26,47s0.043,0.347,0.133,0.53c0.455,0.935,0.455,2.005,0,2.94 C26.043,50.654,26,50.827,26,51v4h6v-4c0-0.174-0.043-0.347-0.133-0.53c-0.455-0.935-0.455-2.005,0-2.94 C31.958,47.347,32,47.174,32,47s-0.043-0.347-0.133-0.53c-0.455-0.935-0.455-2.005,0-2.94C31.958,43.347,32,43.174,32,43 c0-0.249-0.081-0.492-0.247-0.738c-0.665-0.986-0.77-2.205-0.28-3.264C31.818,38.253,32,37.39,32,36.5 c0-0.413,0.039-0.793,0.08-1.154c0.033-0.288,0.066-0.587,0.031-0.688l-0.391-1.12l0.797-0.88C33.488,31.587,34,29.631,34,27 c0-1.12-0.195-2.204-0.58-3.221l-0.245-0.646l1.851-5.914L37.889,8.062z"/><path style="fill:#B34B4D;" d="M27.706,30.644C27.677,30.612,27,29.832,27,27c0-0.756,0.13-1.483,0.386-2.161 c0.396-1.045,0.429-2.192,0.096-3.259l-0.988-3.162c-0.209-0.668-0.552-1.275-1.001-1.792c0.074-0.669,0.014-1.362-0.198-2.043 l-0.998-3.192c-0.214-0.683-0.563-1.29-1.008-1.8c0.012-0.104,0.021-0.207,0.025-0.312C25.38,7.574,27.592,6,28.956,6 c1.378,0,3.627,1.581,5.732,3.296c0.005,0.099,0.014,0.197,0.024,0.295c-0.445,0.51-0.794,1.116-1.008,1.8l-0.998,3.192 c-0.212,0.681-0.272,1.374-0.198,2.043c-0.449,0.517-0.792,1.124-1.001,1.792l-0.988,3.162c-0.333,1.066-0.3,2.214,0.096,3.259 C30.871,25.517,31,26.244,31,27c0,2.832-0.677,3.611-0.705,3.644H27.706z"/><path style="fill:#B34B4D;" d="M26,36c0.367,0,0.72-0.202,0.896-0.553c0.247-0.494,0.047-1.095-0.447-1.342l-2-1 c-0.349-0.174-0.745-0.116-1.038,0.101C23.588,33.489,23.781,33.758,24,34c-0.126,0.362-0.133,0.708-0.109,1.063l1.662,0.831 C25.697,35.966,25.849,36,26,36z"/><path style="fill:#B34B4D;" d="M33.553,33.106l-2,1c-0.494,0.247-0.694,0.848-0.447,1.342C31.282,35.798,31.634,36,32.001,36 c0.15,0,0.303-0.034,0.446-0.105l1.662-0.831C34.133,34.709,34.126,34.362,34,34c0.22-0.243,0.412-0.512,0.591-0.793 C34.298,32.99,33.901,32.932,33.553,33.106z"/></symbol><symbol id="tools-and-utensils" viewBox="0 0 60 60"><title>tools-and-utensils</title><path id="Shape" d="m30.71 27.46-2.83 2.82c-.1877666.1893127-.4433625.2957983-.71.2957983s-.5222334-.1064856-.71-.2957983l-2.82-2.82-1.42 1.41c-.3900375.3877236-1.0199625.3877236-1.41 0l-1.42-1.41c-.1893127-.1877666-.2957983-.4433625-.2957983-.71s.1064856-.5222334.2957983-.71l-14.85-14.85c-.38772359-.3900375-.38772359-1.0199625 0-1.41l.71-.71-3.53-3.53c-.18931265-.1877666-.29579832-.44336246-.29579832-.71s.10648567-.5222334.29579832-.71l2.82-2.83c.18907174-.20195032.45335572-.31655285.73-.31655285s.54092826.11460253.73.31655285l3.49 3.54.71-.71c.1877666-.18931265.4433625-.29579832.71-.29579832s.5222334.10648567.71.29579832l14.84 14.88c.1877666-.1893127.4433625-.2957983.71-.2957983s.5222334.1064856.71.2957983l1.41 1.41c.1893127.1877666.2957983.4433625.2957983.71s-.1064856.5222334-.2957983.71l-1.41 1.41 2.83 2.76c.2019503.1890717.3165529.4533557.3165529.73s-.1146026.5409283-.3165529.73z" fill="#7f8c8d" fill-rule="nonzero"/><path id="Shape" d="m35 39c-.3416485.0008464-.6600856-.1727873-.8444255-.4604386-.1843399-.2876512-.2090684-.6495066-.0655745-.9595614l5.58-12.18c.1500515-.3251117.4621499-.5454758.8187307-.5780832.3565807-.0326074.7034708.1274957.91.4200001.2065292.2925043.2413209.6729714.0912693.9980831l-5.58 12.18c-.1640391.3544542-.519429.5809665-.91.58z" fill="#95a5a5" fill-rule="nonzero"/><circle id="Oval" cx="46" cy="14" fill="#d75e72" fill-rule="nonzero" r="13"/><path id="Shape" d="m8 51h26c2.7614237 0 5 2.2385763 5 5v3h-36v-3c0-2.7614237 2.23857625-5 5-5z" fill="#2980ba" fill-rule="nonzero"/><path id="Shape" d="m32.31 38c-1.6766513 4.7550645-6.146908 7.9548966-11.1886225 8.0088717-5.0417145.0539752-9.5794518-3.0494198-11.3575198-7.7674991-1.77806805-4.7180793-.41719181-10.0444417 3.4061423-13.3313726l-3.17-3.91c-5.60145504 4.769457-7.49938855 12.6008097-4.70293693 19.4055049s9.65265363 11.038456 16.98915463 10.4909419c7.336501-.5475142 13.4883346-5.7520489 15.2437823-12.8964468z" fill="#285680" fill-rule="nonzero"/><path id="Shape" d="m17.72 22.46h-.01" stroke="#000" stroke-linecap="round" stroke-linejoin="round" stroke-width="2"/><g fill-rule="nonzero"><path id="Shape" d="m41 39h-12c-.5522847 0-1-.4477153-1-1s.4477153-1 1-1h12c.5522847 0 1 .4477153 1 1s-.4477153 1-1 1z" fill="#35495e"/><path id="Shape" d="m11.35 18-6.81-6.81c-.38772359-.3900375-.38772359-1.0199625 0-1.41l5.66-5.66c.1877666-.18931265.4433625-.29579832.71-.29579832s.5222334.10648567.71.29579832l14.84 14.88-7.07 7z" fill="#3b97d3"/><rect id="Rectangle-path" fill="#84b5cb" height="4" rx="1" transform="matrix(.707 -.707 .707 .707 -9.786 24.221)" width="12" x="18.345" y="21.923"/><path id="Shape" d="m41 60h-40c-.55228475 0-1-.4477153-1-1s.44771525-1 1-1h40c.5522847 0 1 .4477153 1 1s-.4477153 1-1 1z" fill="#35495e"/><path id="Shape" d="m46 28c-7.7319865 0-14-6.2680135-14-14s6.2680135-14 14-14 14 6.2680135 14 14c0 3.7130309-1.4749958 7.2739856-4.1005051 9.8994949s-6.186464 4.1005051-9.8994949 4.1005051zm0-26c-6.627417 0-12 5.372583-12 12s5.372583 12 12 12 12-5.372583 12-12c0-3.1825979-1.2642821-6.23484483-3.5147186-8.48528137-2.2504366-2.25043655-5.3026835-3.51471863-8.4852814-3.51471863z" fill="#bdc3c7"/><circle id="Oval" cx="43" cy="7" fill="#f3d55b" r="1"/><circle id="Oval" cx="38" cy="12" fill="#f3d55b" r="1"/><circle id="Oval" cx="46" cy="23" fill="#f3d55b" r="1"/><circle id="Oval" cx="48" cy="17" fill="#f3d55b" r="1"/><circle id="Oval" cx="39" cy="18" fill="#f3d55b" r="1"/><circle id="Oval" cx="48" cy="6" fill="#f3d55b" r="1"/><circle id="Oval" cx="54" cy="16" fill="#f3d55b" r="1"/><circle id="Oval" cx="43" cy="14" fill="#f3d55b" r="2"/><circle id="Oval" cx="51" cy="11" fill="#f3d55b" r="2"/><circle id="Oval" cx="14" cy="21" fill="#35495e" r="4"/></g></symbol><symbol id="report" viewBox="0 0 58 59"><title>report</title><path id="Shape" d="m42 26v-18c0-2.209139-1.790861-4-4-4h-34c-2.209139 0-4 1.790861-4 4v46c0 2.209139 1.790861 4 4 4 37.121 0 34.41.1 35.31-.23z" fill="#a56a43"/><path id="Shape" d="m40 26v-18c.1003108-2.10217742-1.5173026-3.89008952-3.619-4h-30.762c-2.10169737.10991048-3.71931084 1.89782258-3.619 4v46c-.10031084 2.1021774 1.51730263 3.8900895 3.619 4 33.682 0 31.135.1 31.947-.23z" fill="#cb8252"/><path id="Shape" d="m38 26.5v-18.5h-34v46h27.41z" fill="#f9eab0"/><path id="Shape" d="m32 3h-4c0-1.657-3.134-3-7-3s-7 1.343-7 3h-4c-.55228475 0-1 .44771525-1 1v6c0 .5522847.44771525 1 1 1h22c.5522847 0 1-.4477153 1-1v-6c0-.55228475-.4477153-1-1-1z" fill="#95a5a5"/><g fill="#ecf0f1"><path id="Shape" d="m13.02 8c-.5522847 0-1-.44771525-1-1s.4477153-1 1-1 1 .44771525 1 1-.4477153 1-1 1z"/><path id="Shape" d="m21.02 8c-.5522847 0-1-.44771525-1-1s.4477153-1 1-1 1 .44771525 1 1-.4477153 1-1 1z"/><path id="Shape" d="m29.02 8c-.5522847 0-1-.44771525-1-1s.4477153-1 1-1 1 .44771525 1 1-.4477153 1-1 1z"/></g><path id="Shape" d="m17.9 21.12-4.511 4.51-4.51-4.51c-.8570093-.8580761-1.11309699-2.1477392-.64895582-3.2681554.46414118-1.1204163 1.55720724-1.8511819 2.76995582-1.8518446.7966344-.0041426 1.5612861.3131103 2.121.88l.269.27.271-.27c.5592772-.5669287 1.3236449-.8842135 2.12-.88 1.2123847.0014701 2.3047116.7325317 2.7683403 1.8527671.4636286 1.1202353.2074131 2.4094145-.6493403 3.2672329z" fill="#ff5364"/><path id="Shape" d="m32 18h-9c-.5522847 0-1-.4477153-1-1s.4477153-1 1-1h9c.5522847 0 1 .4477153 1 1s-.4477153 1-1 1z" fill="#606060"/><path id="Shape" d="m32 22h-9c-.5522847 0-1-.4477153-1-1s.4477153-1 1-1h9c.5522847 0 1 .4477153 1 1s-.4477153 1-1 1z" fill="#606060"/><path id="Shape" d="m32 26h-11c-.5522847 0-1-.4477153-1-1s.4477153-1 1-1h11c.5522847 0 1 .4477153 1 1s-.4477153 1-1 1z" fill="#606060"/><path id="Shape" d="m17.9 36.12-4.511 4.51-4.51-4.51c-.8570093-.8580761-1.11309699-2.1477392-.64895582-3.2681554.46414118-1.1204163 1.55720724-1.8511819 2.76995582-1.8518446.7966344-.0041426 1.5612861.3131103 2.121.88l.269.27.271-.27c.5592772-.5669287 1.3236449-.8842135 2.12-.88 1.2123847.0014701 2.3047116.7325317 2.7683403 1.8527671.4636286 1.1202353.2074131 2.4094145-.6493403 3.2672329z" fill="#ff5364"/><path id="Shape" d="m29.51 33h-6.51c-.5522847 0-1-.4477153-1-1s.4477153-1 1-1h6.51c.5522847 0 1 .4477153 1 1s-.4477153 1-1 1z" fill="#606060"/><path id="Shape" d="m27.17 37h-4.17c-.5522847 0-1-.4477153-1-1s.4477153-1 1-1h4.17c.5522847 0 1 .4477153 1 1s-.4477153 1-1 1z" fill="#606060"/><path id="Shape" d="m26.13 41h-5.13c-.5522847 0-1-.4477153-1-1s.4477153-1 1-1h5.13c.5522847 0 1 .4477153 1 1s-.4477153 1-1 1z" fill="#606060"/><path id="Shape" d="m31.76 29.7c-3.6198375 3.0161236-5.7268794 7.4739469-5.759639 12.1855444-.0327596 4.7115976 2.0120915 9.1982889 5.589639 12.2644556 10.368 8.887 26.41 1.442 26.41-12.15 0-13.469-15.807-21-26.24-12.3z" fill="#f29c1f"/><path id="Shape" d="m52.41 29.85-10.41 12.15-10.24-12.3c5.9993341-4.9912026 14.7238065-4.9278287 20.65.15z" fill="#cc4b4c"/><path id="Shape" d="m43.77 57.9c-4.4046735.4965127-8.8173361-.8620657-12.18-3.75l10.41-12.15z" fill="#f0c419"/><path id="Shape" d="m58.0000009 42c.002734 8.1523062-6.1273284 15.0017786-14.2300009 15.9l-1.77-15.9z" fill="#4fba6f"/><path id="Shape" d="m58.0000174 42h-16.0000174l10.41-12.15c3.5535545 3.0353188 5.5968998 7.4765792 5.5900174 12.15z" fill="#4482c3"/></symbol><symbol id="search" viewBox="0 0 466.309 466.309"><title>search</title><circle style="fill:#90C5FF;" cx="308.625" cy="160.837" r="138.57"/><rect x="69.016" y="280.563" transform="matrix(-0.7071 -0.7071 0.7071 -0.7071 -90.9987 701.6116)" style="fill:#59595A;" width="61.586" height="178.178"/><rect x="137.953" y="292.311" transform="matrix(-0.7071 -0.7071 0.7071 -0.7071 75.4308 632.6729)" style="fill:#ABCB57;" width="61.586" height="16.806"/><rect x="0.079" y="430.187" transform="matrix(-0.7071 -0.7071 0.7071 -0.7071 -257.4281 770.5503)" style="fill:#ABCB57;" width="61.586" height="16.806"/><g> <g> <polygon style="opacity:0.2;fill:#FFFFFF;enable-background:new ;" points="254.961,399.535 224.429,387.668 374.939,0 405.473,11.847 "/> </g> <g> <polygon style="opacity:0.2;fill:#FFFFFF;enable-background:new ;" points="298.66,436.49 268.121,424.616 418.631,36.946 449.15,48.777 "/> </g> </g><path style="fill:#59595A;" d="M417.893,51.569c-29.186-29.187-67.992-45.26-109.268-45.26s-80.081,16.073-109.268,45.26 c-29.186,29.186-45.26,67.992-45.26,109.268c0,35.857,12.136,69.846,34.456,97.288l-25.259,25.259l22.785,22.785l25.259-25.259 c27.442,22.319,61.43,34.456,97.287,34.456c41.276,0,80.081-16.073,109.268-45.26c29.187-29.187,45.26-67.993,45.26-109.269 S447.08,80.755,417.893,51.569z M395.325,247.537c-23.158,23.158-53.949,35.912-86.7,35.913c-32.751,0-63.542-12.754-86.7-35.913 c-23.158-23.158-35.912-53.949-35.913-86.7c0-32.751,12.754-63.542,35.913-86.7c23.158-23.158,53.949-35.912,86.7-35.913 c32.751,0,63.542,12.754,86.7,35.913s35.912,53.949,35.913,86.7C431.238,193.588,418.484,224.379,395.325,247.537z"/><path style="opacity:0.3;fill:#5B5B5F;enable-background:new ;" d="M308.625,315.365c41.276,0,80.081-16.073,109.268-45.26 s45.26-67.992,45.26-109.268c0.001-41.276-16.073-80.082-45.26-109.268l-22.568,22.568c23.158,23.158,35.912,53.949,35.913,86.7 c-0.001,32.751-12.754,63.542-35.913,86.7c-23.158,23.158-53.949,35.912-86.7,35.913c-32.751,0-63.542-12.754-86.7-35.913 l-20.923,20.923l-1.645,1.645l-24.671,24.671l-5.942,5.942L24.927,444.535l21.774,21.774l11.883-11.883l125.993-125.993 l11.883-11.883l-10.382-10.382l25.259-25.259C238.78,303.228,272.768,315.365,308.625,315.365z"/></symbol><symbol id="list" viewBox="0 0 503.322 503.322"><title>list</title><path style="fill:#546080;" d="M295.051,34.712V17.356C295.051,7.81,287.241,0,277.695,0h-52.068 c-9.546,0-17.356,7.81-17.356,17.356v17.356h-34.712c-5.207,0-8.678,3.471-8.678,8.678v60.746c0,5.207,3.471,8.678,8.678,8.678 h156.203c5.207,0,8.678-3.471,8.678-8.678V43.39c0-5.207-3.471-8.678-8.678-8.678H295.051z"/><path style="fill:#EFEADD;" d="M338.441,60.746v43.39c0,5.207-3.471,8.678-8.678,8.678H173.559c-5.207,0-8.678-4.339-8.678-8.678 v-43.39h-52.068c-19.092,0-34.712,15.62-34.712,34.712V468.61c0,19.092,15.62,34.712,34.712,34.712h277.695 c19.092,0,34.712-15.62,34.712-34.712V95.458c0-19.092-15.62-34.712-34.712-34.712H338.441z"/><g> <path style="fill:#D4D0BA;" d="M173.559,182.237c0-9.546-7.81-17.356-17.356-17.356c-9.546,0-17.356,7.81-17.356,17.356 s7.81,17.356,17.356,17.356C165.749,199.593,173.559,191.783,173.559,182.237"/> <path style="fill:#D4D0BA;" d="M347.119,190.915H199.593c-5.207,0-8.678-3.471-8.678-8.678s3.471-8.678,8.678-8.678h147.525 c5.207,0,8.678,3.471,8.678,8.678S352.325,190.915,347.119,190.915"/> <path style="fill:#D4D0BA;" d="M173.559,260.339c0-9.546-7.81-17.356-17.356-17.356c-9.546,0-17.356,7.81-17.356,17.356 c0,9.546,7.81,17.356,17.356,17.356C165.749,277.695,173.559,269.885,173.559,260.339"/> <path style="fill:#D4D0BA;" d="M347.119,269.017H199.593c-5.207,0-8.678-3.471-8.678-8.678s3.471-8.678,8.678-8.678h147.525 c5.207,0,8.678,3.471,8.678,8.678S352.325,269.017,347.119,269.017"/> <path style="fill:#D4D0BA;" d="M173.559,338.441c0-9.546-7.81-17.356-17.356-17.356c-9.546,0-17.356,7.81-17.356,17.356 s7.81,17.356,17.356,17.356C165.749,355.797,173.559,347.986,173.559,338.441"/> <path style="fill:#D4D0BA;" d="M347.119,347.119H199.593c-5.207,0-8.678-3.471-8.678-8.678s3.471-8.678,8.678-8.678h147.525 c5.207,0,8.678,3.471,8.678,8.678S352.325,347.119,347.119,347.119"/> <path style="fill:#D4D0BA;" d="M173.559,416.542c0-9.546-7.81-17.356-17.356-17.356c-9.546,0-17.356,7.81-17.356,17.356 c0,9.546,7.81,17.356,17.356,17.356C165.749,433.898,173.559,426.088,173.559,416.542"/> <path style="fill:#D4D0BA;" d="M347.119,425.22H199.593c-5.207,0-8.678-3.471-8.678-8.678c0-5.207,3.471-8.678,8.678-8.678h147.525 c5.207,0,8.678,3.471,8.678,8.678C355.797,421.749,352.325,425.22,347.119,425.22"/> </g></symbol></svg>